<svg xmlns="http://www.w3.org/2000/svg" viewBox="0 0 161.93 179.96"><defs><style>.cls-1,.cls-4{fill:#333;}.cls-1,.cls-2,.cls-5{opacity:0.9;}.cls-3,.cls-5{fill:#cdcccc;}</style></defs><g id="Layer_2" data-name="Layer 2"><g id="Layer_1-2" data-name="Layer 1"><path class="cls-1" d="M4.15,60.43H161.93a0,0,0,0,1,0,0V170.2a9.76,9.76,0,0,1-9.76,9.76H13.92a9.76,9.76,0,0,1-9.76-9.76V60.43A0,0,0,0,1,4.15,60.43Z"/><g class="cls-2"><polygon class="cls-3" points="68.53 60.43 57.98 78.69 38.23 78.69 48.77 60.43 68.53 60.43"/><polygon class="cls-3" points="98.83 60.43 88.28 78.69 68.53 78.69 79.06 60.43 98.83 60.43"/><polygon class="cls-3" points="129.13 60.43 118.58 78.69 98.83 78.69 109.36 60.43 129.13 60.43"/><polygon class="cls-3" points="159.43 60.43 148.88 78.69 129.13 78.69 139.66 60.43 159.43 60.43"/></g><g class="cls-2"><rect class="cls-4" x="-0.82" y="22.9" width="157.78" height="18.26" transform="translate(-5.98 24.49) rotate(-17.18)"/><polygon class="cls-5" points="66.89 45.04 51.43 30.71 32.55 36.55 48.01 50.88 66.89 45.04"/><polygon class="cls-5" points="95.84 36.09 80.37 21.76 61.49 27.59 76.96 41.93 95.84 36.09"/><polygon class="cls-5" points="124.78 27.14 109.32 12.81 90.44 18.64 105.91 32.98 124.78 27.14"/><polygon class="cls-5" points="153.73 18.19 138.27 3.85 119.39 9.69 134.85 24.02 153.73 18.19"/></g><rect class="cls-5" x="18.27" y="94.45" width="130.6" height="8.96" rx="4.48"/><rect class="cls-5" x="18.27" y="110.82" width="130.6" height="8.96" rx="4.48"/><rect class="cls-5" x="17.95" y="127.18" width="130.6" height="8.96" rx="4.48"/><rect class="cls-5" x="17.21" y="153.99" width="35.49" height="8.96" rx="4.48"/><rect class="cls-5" x="64.77" y="153.99" width="35.49" height="8.96" rx="4.48"/><rect class="cls-5" x="112.32" y="153.99" width="35.49" height="8.96" rx="4.48"/></g></g></svg>